<?xml version="1.0" encoding="utf-8"?>
<!-- Generator: Adobe Illustrator 21.1.0, SVG Export Plug-In . SVG Version: 6.00 Build 0)  -->
<svg version="1.1" id="Layer_1" xmlns="http://www.w3.org/2000/svg" xmlns:xlink="http://www.w3.org/1999/xlink" x="0px" y="0px"
	 viewBox="0 0 913.1 275.9" style="enable-background:new 0 0 913.1 275.9;" xml:space="preserve">
<style type="text/css">
	.st0{fill:#305364;}
	.st1{fill:#F26531;}
</style>
<title>Asset 10quakecon-2Q18-withdates-color</title>
<g id="Layer_2">
	<g id="Layer_1-2">
		<path class="st0" d="M197.7,0c-37,0-56,16.3-74.7,42.5l-1.3,1.8l1.8,1.4L148,64.8l1.9,1.4l1.4-1.9c16.2-20.9,28-26.7,43.9-26.7
			c18,0,32.2,9.2,32.2,26.4c0,16.1-11.1,28.2-38.8,51.6l-68,57.9l-0.8,0.7v32.2h147.4v-36.5h-81.6l35.7-29.8
			c38.9-31.7,43.9-58.6,43.9-78.6C265.2,24.8,238.1,0,197.7,0z"/>
		<path class="st0" d="M607,0.1h-26.5l-57.4,18.3l12.2,35.7l34-10.9v163.3H607V0.1z"/>
		<path class="st0" d="M716.7,206.4c-43.8,0-76.5-22.9-76.5-57.6c0-24.7,13.5-39.8,36.1-49.3c-16.9-8.9-29.2-22.4-29.2-45
			c0-31,29.5-54.5,69.6-54.5s69.6,23.5,69.6,54.5c0,22.6-12.3,36.1-29.2,45c21.8,10,36.1,24.4,36.1,48.4
			C793.3,184.1,760.6,206.4,716.7,206.4z M716.7,116.7c-22,0-38.9,11.6-38.9,29.5c0,16.3,14.5,29.2,38.9,29.2s38.9-13,38.9-29.2
			C755.6,128.3,738.7,116.7,716.7,116.7z M716.7,33.9c-19.1,0-31.8,11.2-31.8,25c0,15.8,13.5,26.8,31.8,26.8s31.8-11,31.8-26.5
			C748.5,45.1,735.8,33.9,716.7,33.9z"/>
		<g id="Registered_Symbol">
			<path id="Registered_Circle" class="st1" d="M486.4,191.1c-3.8,0-6.8,3.1-6.8,6.8l0,0c0,3.7,3,6.8,6.8,6.8c3.7,0,6.8-3,6.8-6.8
				c0,0,0,0,0,0l0,0C493.2,194.1,490.2,191.1,486.4,191.1C486.5,191.1,486.4,191.1,486.4,191.1z M491.6,197.9c0,2.9-2.3,5.2-5.2,5.2
				s-5.2-2.3-5.2-5.2l0,0l0,0c0-2.9,2.3-5.2,5.2-5.2S491.6,195,491.6,197.9z"/>
			<path id="Registered_R" class="st1" d="M489.4,196.4c0-1.2-0.9-2.3-2.2-2.3c-0.1,0-0.2,0-0.3,0H484v7.4h1v-2.7h1.6l1.6,2.7h1.3
				l-1.8-2.9C488.7,198.3,489.4,197.4,489.4,196.4z M485,197.8v-2.6h1.8c0.9,0,1.5,0.4,1.5,1.3c0,0.7-0.5,1.3-1.2,1.4
				c-0.1,0-0.2,0-0.2,0L485,197.8z"/>
		</g>
		<g id="CIRCLE_SPIKE_Black">
			<g id="Q_Spike">
				<path id="Q_Spike_Icon" class="st1" d="M504.5,103.6C504.6,46.5,458.2,0.1,401,0.1S297.5,46.4,297.4,103.6
					c0,52.7,39.5,96.9,91.8,102.9v17.8l11.8,48l11.8-48v-17.8C465,200.5,504.5,156.3,504.5,103.6z M385,125.2v5.6l4.2,4.9v32.8
					c-35.8-6.5-59.6-40.8-53.1-76.6c6.5-35.8,40.8-59.6,76.6-53.1s59.6,40.8,53.1,76.6c-4.9,27-26.1,48.2-53.1,53.1v-32.8l4.2-4.9
					v-5.6L385,125.2z"/>
			</g>
		</g>
		<path class="st0" d="M460.3,275.9c-9.6,0-15.9-6.9-15.9-15.9c-0.1-8.7,6.7-15.8,15.4-15.9c0.2,0,0.3,0,0.5,0
			c4.3-0.2,8.6,1.3,11.8,4.2l-3.4,4.1c-2.3-2.2-5.4-3.4-8.6-3.3c-5.7,0-10,4.9-10,10.9c0,6.4,4.2,11,10.5,11c2.7,0,5.3-0.8,7.4-2.3
			v-5.8H460v-4.7h13.1V271C469.5,274.1,465,275.8,460.3,275.9z"/>
		<path class="st0" d="M516.1,275.3h-5.7l-3.1-7.4h-14.5l-3.2,7.4h-5.5l13.5-30.9h5L516.1,275.3z M500,250.8l-5.3,12.3h10.6
			L500,250.8z"/>
		<path class="st0" d="M537.6,275.3h-5.4v-12.1L520,244.6h6.4l8.6,13.6l8.7-13.6h6.2l-12.2,18.5L537.6,275.3z"/>
		<path class="st0" d="M561.2,244.6h5.4v25.8h16.2v4.9h-21.6V244.6z"/>
		<path class="st0" d="M607.8,275.9c-8.8-0.1-15.8-7.3-15.7-16.1c0.1-8.8,7.3-15.8,16.1-15.7c8.7,0.1,15.6,7.2,15.7,15.8
			c0.2,8.6-6.6,15.8-15.3,15.9C608.4,275.9,608.1,275.9,607.8,275.9z M607.8,249c-6.1,0-10.4,4.9-10.4,10.9s4.3,11,10.5,11
			s10.4-4.9,10.4-10.9S613.9,249,607.8,249L607.8,249z"/>
		<path class="st0" d="M656.8,275.3l-7.5-10.7h-6.8v10.7h-5.4v-30.7h13.7c7.1,0,11.4,3.7,11.4,9.8c0,5.1-3,8.2-7.3,9.4l8.3,11.6
			L656.8,275.3z M650.3,249.5h-7.9v10.3h7.9c3.9,0,6.3-2,6.3-5.2C656.7,251.3,654.3,249.5,650.3,249.5L650.3,249.5z"/>
		<path class="st0" d="M686.8,275.3h-11.4v-30.7h11.5c9.7,0,16.3,6.6,16.3,15.3S696.5,275.3,686.8,275.3z M686.8,249.5h-6.1v20.9
			h6.1c6.5,0,10.7-4.4,10.7-10.4S693.3,249.5,686.8,249.5L686.8,249.5z"/>
		<path class="st0" d="M749.1,275.3h-5.4v-25.7h-9.8v-5h24.9v5H749L749.1,275.3z"/>
		<path class="st0" d="M793.9,249.4h-17.4v8h15.4v4.8h-15.4v8.3h17.6v4.8h-23v-30.7h22.8L793.9,249.4z"/>
		<path class="st0" d="M827.2,275.3l-8.1-11.6l-8.1,11.6h-6.2l11.2-15.6l-10.8-15.1h6.4l7.6,11l7.7-11h6.2l-10.7,15l11.2,15.7H827.2
			z"/>
		<path class="st0" d="M874.5,275.3h-5.7l-3.1-7.4h-14.5l-3.1,7.4h-5.5l13.5-30.9h5L874.5,275.3z M858.4,250.8l-5.3,12.3h10.6
			L858.4,250.8z"/>
		<path class="st0" d="M907.8,244.6h5.3v30.7h-4.5l-17-21.9v21.9h-5.3v-30.7h5l16.5,21.3L907.8,244.6z"/>
		<path class="st0" d="M32,275.3h-5.7l-3.1-7.4H8.7l-3.2,7.4H0l13.5-30.9h5L32,275.3z M15.9,250.8l-5.3,12.3h10.6L15.9,250.8z"/>
		<path class="st0" d="M68.8,262c0,9.2-5.2,13.8-13.2,13.8s-13.1-4.6-13.1-13.5v-17.7h5.4v17.5c0,5.7,2.9,8.8,7.8,8.8
			s7.7-2.9,7.7-8.6v-17.7h5.4L68.8,262z"/>
		<path class="st0" d="M97.5,275.9c-9.6,0-15.9-6.9-15.9-15.9c-0.1-8.7,6.7-15.8,15.4-15.9c0.2,0,0.3,0,0.5,0
			c4.3-0.2,8.6,1.3,11.8,4.2l-3.4,4.1c-2.3-2.2-5.4-3.4-8.6-3.3c-5.7,0-10,4.9-10,10.9c0,6.4,4.2,11,10.4,11c2.7,0,5.3-0.8,7.4-2.3
			v-5.8h-7.8v-4.7h13.1V271C106.8,274.1,102.3,275.8,97.5,275.9z"/>
		<path class="st0" d="M150,262c0,9.2-5.2,13.8-13.2,13.8s-13.1-4.6-13.1-13.5v-17.7h5.4v17.5c0,5.7,2.9,8.8,7.8,8.8
			s7.7-2.9,7.7-8.6v-17.7h5.4V262z"/>
		<path class="st0" d="M176,257.5c6.5,1.6,9.9,3.9,9.9,9c0,5.8-4.5,9.2-11,9.2c-4.7,0-9.3-1.7-12.8-4.9l3.3-3.9c2.9,2.5,5.9,4,9.7,4
			c3.3,0,5.4-1.5,5.4-3.9s-1.2-3.4-6.9-4.7c-6.5-1.6-10.2-3.5-10.2-9.2c0-5.4,4.4-9,10.5-9c4.1-0.1,8,1.3,11.2,3.9l-2.9,4.1
			c-2.4-1.9-5.3-3-8.3-3.2c-3.2,0-5,1.6-5,3.7C168.7,255,170.1,256.1,176,257.5z"/>
		<path class="st0" d="M211.3,275.3h-5.4v-25.7h-9.8v-5h24.9v5h-9.8L211.3,275.3z"/>
		<path class="st0" d="M262.6,275.9c-3.6,0-7.1-1.3-9.8-3.7l2.9-4.1c1.9,1.8,4.4,2.9,7,2.9c4.5,0,7.2-4,7.4-9.7
			c-1.8,2.1-4.4,3.3-7.2,3.3c-6.5,0-10.9-3.8-10.9-9.8s4.7-10.7,11.5-10.7c3.9,0,6.4,1.1,8.5,3.3s3.7,5.7,3.7,11.8
			C275.8,269,270.9,275.9,262.6,275.9z M263.6,248.7c-3.8,0-6.1,2.6-6.1,5.8c0,3.2,2.5,5.5,6.2,5.5s6.2-2.5,6.2-5.6
			C270,251.2,267.5,248.7,263.6,248.7L263.6,248.7z"/>
		<path class="st0" d="M287.5,264.5v-5.2h13v5.2H287.5z"/>
		<path class="st0" d="M317.8,244.4h3.8v31h-5.4v-25.5l-5.5,1.5l-1.1-4.4L317.8,244.4z"/>
		<path class="st0" d="M339,253.6l-3.8-3c2.9-4.1,5.8-6.4,11.3-6.4c6.1,0,10.1,3.7,10.1,9.2c0,4.9-2.5,7.5-8,11.9l-6.3,5.3h14.6v4.7
			h-22.2V271l10.6-9c4.2-3.6,5.8-5.5,5.8-8.3c0.1-2.5-1.9-4.7-4.4-4.8c-0.2,0-0.4,0-0.6,0C343.3,249,341.4,250.5,339,253.6z"/>
	</g>
</g>
</svg>
