<svg xmlns="http://www.w3.org/2000/svg" viewBox="0 0 1337.47 194.5"><defs><style>.cls-1{fill:#fff;}.cls-2{fill:#f26531;}</style></defs><title>Asset 5quakecon20quakecon-withdates-white</title><g id="Layer_2" data-name="Layer 2"><g id="Layer_1-2" data-name="Layer 1"><path class="cls-1" d="M1014.46,0c-20.82,0-31.51,9.14-42,23.88l-.73,1,1,.77,13.81,10.8,1,.81.81-1c9.09-11.78,15.78-15,24.68-15,10.1,0,18.1,5.16,18.1,14.87,0,9.08-6.22,15.85-21.8,29L971.07,97.62l-.46.39v18.1h82.95V95.56h-45.89l20.08-16.73c21.89-17.83,24.7-33,24.7-44.18,0-20.72-15.26-34.65-38-34.65Z"/><path class="cls-1" d="M1121.84,116.11c-29.51,0-48.75-25.66-48.75-57.89S1092.66,0,1122.16,0s48.75,25.66,48.75,57.89S1151.35,116.11,1121.84,116.11Zm0-94.87c-16.94,0-27.52,16.14-27.52,36.68s10.88,37,27.83,37,27.52-16.29,27.52-36.68S1138.79,21.24,1121.84,21.24Z"/><path class="cls-1" d="M1230.37,0h-14.88l-32.32,10.31L1190,30.38l19.16-6.12v91.86h21.2Z"/><g id="Registered_Symbol" data-name="Registered Symbol"><path class="cls-2" d="M950.25.11a8.22,8.22,0,0,0-8.18,8.23v0a8.18,8.18,0,1,0,16.36,0v0A8.16,8.16,0,0,0,950.25.11Zm6.12,8.23a6.12,6.12,0,1,1-12.24,0v0a6.12,6.12,0,1,1,12.24,0Z"/><path class="cls-2" d="M953.7,6.63a2.69,2.69,0,0,0-2.95-2.74h-3.54v8.88h1.27V9.53h1.91l2,3.25H954l-2.22-3.45A2.67,2.67,0,0,0,953.7,6.63Zm-5.22,1.73V5.16h2.13c1.09,0,1.77.51,1.77,1.57a1.58,1.58,0,0,1-1.77,1.62Z"/></g><polygon id="N" class="cls-2" points="928.07 116.11 910 116.11 859.88 42.08 859.88 116.11 838.67 116.11 838.67 0 856.74 0 906.87 74.03 906.87 0 928.07 0 928.07 116.11"/><path id="O" class="cls-2" d="M756.15,116.2a58.1,58.1,0,1,1,58.1-58.1,58.17,58.17,0,0,1-58.1,58.1m0-94.47a36.37,36.37,0,1,0,36.37,36.36,36.41,36.41,0,0,0-36.37-36.36"/><path id="C" class="cls-2" d="M638.59,116.2A58.1,58.1,0,1,1,677,14.5l3.54,3.11L666,33.78l-3.48-3a36.36,36.36,0,1,0,.68,54.12l3.54-3.26L681,98.07l-3.38,3.06a58,58,0,0,1-39,15.07"/><polygon id="K" class="cls-2" points="467.37 116.2 437.9 116.2 402.41 75.55 402.41 116.2 381.2 116.2 381.2 0 402.41 0 402.41 40.96 438.91 0 467.37 0 416.77 56.87 467.37 116.2"/><polygon class="cls-2" points="300.81 33.97 300.82 33.99 300.83 33.97 300.81 33.97"/><path class="cls-2" d="M357.19,116.18H334.29l-10.1-24.81H277.45l-10.1,24.81H244.45L291.7,0h18.24ZM315.47,70,300.82,34,286.17,70Z"/><path id="U" class="cls-2" d="M186.63,116.2C160.6,116.2,141,97,141,71.65V0h21.2V67.78c0,12.8,7.65,27.2,24.74,27.2s24.7-14.4,24.7-27.2V0h21.24V71.65c0,25.81-19.43,44.55-46.21,44.55"/><polygon class="cls-2" points="556.12 21.2 556.12 0 491.38 0 491.38 116.2 556.12 116.2 556.12 95 512.58 95 512.58 68.18 556.11 68.18 556.11 46.98 512.58 46.98 512.58 21.2 556.12 21.2"/><g id="CIRCLE_SPIKE_Black" data-name="CIRCLE &amp; SPIKE Black"><g id="Q_Spike" data-name="Q Spike"><path id="Q_Spike_Icon" data-name="Q Spike Icon" class="cls-2" d="M116.61,58.31a58.31,58.31,0,1,0-64.93,57.91v10l6.62,27,6.63-27v-10A58.3,58.3,0,0,0,116.61,58.31ZM49.33,70.43v3.13l2.35,2.76V94.79a37.1,37.1,0,1,1,13.25,0V76.32l2.35-2.76V70.43Z"/></g></g><path class="cls-1" d="M1294.42,116.11c-24.67,0-43.05-12.9-43.05-32.41,0-13.87,7.58-22.41,20.32-27.73-9.51-5-16.45-12.58-16.45-25.32,0-17.41,16.61-30.64,39.18-30.64s39.18,13.22,39.18,30.64c0,12.74-6.93,20.32-16.45,25.32,12.26,5.64,20.32,13.71,20.32,27.25C1337.47,103.54,1319.09,116.11,1294.42,116.11Zm0-50.5c-12.35,0-21.87,6.52-21.87,16.6,0,9.16,8.18,16.45,21.87,16.45s21.87-7.29,21.87-16.45C1316.29,72.13,1306.77,65.62,1294.42,65.62Zm0-46.58c-10.74,0-17.9,6.32-17.9,14.07,0,8.9,7.59,15.07,17.9,15.07s17.9-6.17,17.9-14.93C1312.32,25.35,1305.16,19,1294.42,19Z"/><path class="cls-1" d="M710.74,194.5c-11.83,0-19.61-8.43-19.61-19.51a19.28,19.28,0,0,1,19.51-19.61c6.59,0,10.64,1.84,14.53,5.13l-4.21,5a14.82,14.82,0,0,0-10.59-4.05c-7,0-12.26,6.05-12.26,13.4,0,7.83,5.13,13.56,12.86,13.56a15.44,15.44,0,0,0,9.13-2.86V178.5h-9.67v-5.78h16.1v15.89A24.11,24.11,0,0,1,710.74,194.5Z"/><path class="cls-1" d="M784.87,193.85h-7L774,184.72H756.13l-3.89,9.13h-6.81l16.64-38.09h6.16ZM765,163.7l-6.48,15.13h13Z"/><path class="cls-1" d="M816.76,193.85h-6.7V178.93L795,156h7.83l10.59,16.75L824.16,156h7.62l-15,22.75Z"/><path class="cls-1" d="M851.13,156h6.65V187.8h19.88v6.05H851.13Z"/><path class="cls-1" d="M914,194.5a19.56,19.56,0,1,1,19.83-19.61A19.21,19.21,0,0,1,914,194.5Zm0-33c-7.51,0-12.75,6-12.75,13.4s5.35,13.51,12.86,13.51,12.75-6,12.75-13.4S921.48,161.48,914,161.48Z"/><path class="cls-1" d="M979.63,193.85l-9.29-13.18H962v13.18h-6.65V156h16.86c8.7,0,14,4.59,14,12,0,6.27-3.73,10-9,11.51l10.21,14.32Zm-7.94-31.77H962v12.7h9.73c4.75,0,7.78-2.49,7.78-6.38C979.52,164.24,976.6,162.08,971.69,162.08Z"/><path class="cls-1" d="M1022,193.85h-14.1V156H1022c11.89,0,20.1,8.16,20.1,18.86S1033.94,193.85,1022,193.85Zm0-31.77h-7.46V187.8H1022c7.94,0,13.13-5.35,13.13-12.81S1030,162.08,1022,162.08Z"/><path class="cls-1" d="M1109.43,193.85h-6.7V162.18h-12V156h30.69v6.16h-12Z"/><path class="cls-1" d="M1170,162h-21.4v9.83h19v5.94h-19V187.9h21.67v5.94H1142V156h28Z"/><path class="cls-1" d="M1216.37,193.85l-9.94-14.32-10,14.32h-7.62l13.78-19.24L1189.35,156h7.83l9.4,13.56L1216,156h7.62l-13.18,18.48,13.72,19.34Z"/><path class="cls-1" d="M1280,193.85h-7l-3.84-9.13h-17.88l-3.89,9.13h-6.81l16.64-38.09h6.16Zm-19.83-30.15-6.48,15.13h13Z"/><path class="cls-1" d="M1326.44,156H1333v37.82h-5.57l-20.86-26.91v26.91H1300V156h6.16l20.26,26.15Z"/><path class="cls-1" d="M131.67,193.85h-7l-3.84-9.13H102.93L99,193.85H92.23l16.64-38.09H115ZM111.84,163.7l-6.48,15.13h13Z"/><path class="cls-1" d="M182.09,177.48c0,11.29-6.38,17-16.26,17s-16.1-5.67-16.1-16.64V156h6.65v21.5c0,7,3.62,10.81,9.56,10.81s9.51-3.57,9.51-10.54V156h6.65Z"/><path class="cls-1" d="M222.67,194.5c-11.83,0-19.61-8.43-19.61-19.51a19.28,19.28,0,0,1,19.5-19.61c6.59,0,10.64,1.84,14.53,5.13l-4.21,5a14.82,14.82,0,0,0-10.59-4.05c-7,0-12.27,6.05-12.27,13.4,0,7.83,5.13,13.56,12.86,13.56a15.44,15.44,0,0,0,9.13-2.86V178.5h-9.67v-5.78h16.1v15.89A24.12,24.12,0,0,1,222.67,194.5Z"/><path class="cls-1" d="M292.38,177.48c0,11.29-6.38,17-16.26,17S260,188.77,260,177.8V156h6.65v21.5c0,7,3.62,10.81,9.56,10.81s9.51-3.57,9.51-10.54V156h6.65Z"/><path class="cls-1" d="M329.62,171.91c8,1.94,12.16,4.81,12.16,11.13,0,7.13-5.56,11.35-13.51,11.35a23.3,23.3,0,0,1-15.78-6.05l4-4.75c3.62,3.13,7.24,4.92,11.94,4.92,4.11,0,6.7-1.89,6.7-4.81,0-2.76-1.51-4.21-8.54-5.84-8.05-1.95-12.59-4.32-12.59-11.35,0-6.59,5.4-11,12.91-11a21,21,0,0,1,13.72,4.75l-3.57,5c-3.4-2.54-6.81-3.89-10.27-3.89-3.89,0-6.16,2-6.16,4.54C320.65,168.88,322.38,170.18,329.62,171.91Z"/><path class="cls-1" d="M378.3,193.85h-6.7V162.18h-12V156H390.3v6.16h-12Z"/><path class="cls-1" d="M451.85,194.5a18,18,0,0,1-12.1-4.54l3.62-5.08c2.86,2.43,5.4,3.57,8.65,3.57,5.57,0,8.92-4.92,9.13-11.89a11.14,11.14,0,0,1-8.86,4c-8.05,0-13.4-4.7-13.4-12s5.73-13.13,14.1-13.13c4.75,0,7.83,1.35,10.48,4,2.81,2.81,4.59,7,4.59,14.48C468.06,186.07,462,194.5,451.85,194.5ZM453,161.1c-4.7,0-7.51,3.13-7.51,7.08s3,6.81,7.73,6.81,7.67-3.13,7.67-6.86C460.93,164.13,457.85,161.1,453,161.1Z"/><path class="cls-1" d="M487.68,180.5v-6.43h16v6.43Z"/><path class="cls-1" d="M530.15,155.75h4.65v38.09h-6.59V162.51l-6.81,1.89L520,159Z"/><path class="cls-1" d="M561.38,167.1l-4.7-3.67c3.62-5.08,7.19-7.94,13.94-7.94,7.56,0,12.48,4.59,12.48,11.35,0,6-3.13,9.24-9.83,14.7L565.49,188h18v5.84H556.14v-5.24l13-11.08c5.19-4.38,7.08-6.81,7.08-10.21,0-3.73-2.65-5.89-6.11-5.89S564.3,163.32,561.38,167.1Z"/><circle class="cls-1" cx="637.03" cy="175.18" r="6.16"/></g></g></svg>