<svg xmlns="http://www.w3.org/2000/svg" viewBox="0 0 1337.47 153.31"><defs><style>.cls-1{fill:#fff;}.cls-2{fill:#f26531;}</style></defs><title>Asset 1quakecon20quakecon-with2018-white</title><g id="Layer_2" data-name="Layer 2"><g id="Layer_1-2" data-name="Layer 1"><path class="cls-1" d="M1014.46,0c-20.82,0-31.51,9.14-42,23.88l-.73,1,1,.77,13.81,10.8,1,.81.81-1c9.09-11.78,15.78-15,24.68-15,10.1,0,18.1,5.16,18.1,14.87,0,9.08-6.22,15.85-21.8,29L971.07,97.62l-.46.39v18.1h82.95V95.56h-45.89l20.08-16.73c21.89-17.83,24.7-33,24.7-44.18,0-20.72-15.26-34.65-38-34.65Z"/><path class="cls-1" d="M1121.84,116.11c-29.51,0-48.75-25.66-48.75-57.89S1092.66,0,1122.16,0s48.75,25.66,48.75,57.89S1151.35,116.11,1121.84,116.11Zm0-94.87c-16.94,0-27.52,16.14-27.52,36.68s10.88,37,27.83,37,27.52-16.29,27.52-36.68S1138.79,21.24,1121.84,21.24Z"/><path class="cls-1" d="M1230.37,0h-14.88l-32.32,10.31L1190,30.38l19.16-6.12v91.86h21.2Z"/><g id="Registered_Symbol" data-name="Registered Symbol"><path class="cls-2" d="M950.25.11a8.22,8.22,0,0,0-8.18,8.23v0a8.18,8.18,0,1,0,16.36,0v0A8.16,8.16,0,0,0,950.25.11Zm6.12,8.23a6.12,6.12,0,1,1-12.24,0v0a6.12,6.12,0,1,1,12.24,0Z"/><path class="cls-2" d="M953.7,6.63a2.69,2.69,0,0,0-2.95-2.74h-3.54v8.88h1.27V9.53h1.91l2,3.25H954l-2.22-3.45A2.67,2.67,0,0,0,953.7,6.63Zm-5.22,1.73V5.16h2.13c1.09,0,1.77.51,1.77,1.57a1.58,1.58,0,0,1-1.77,1.62Z"/></g><polygon id="N" class="cls-2" points="928.07 116.11 910 116.11 859.88 42.08 859.88 116.11 838.67 116.11 838.67 0 856.74 0 906.87 74.03 906.87 0 928.07 0 928.07 116.11"/><path id="O" class="cls-2" d="M756.15,116.2a58.1,58.1,0,1,1,58.1-58.1,58.17,58.17,0,0,1-58.1,58.1m0-94.47a36.37,36.37,0,1,0,36.37,36.36,36.41,36.41,0,0,0-36.37-36.36"/><path id="C" class="cls-2" d="M638.59,116.2A58.1,58.1,0,1,1,677,14.5l3.54,3.11L666,33.78l-3.48-3a36.36,36.36,0,1,0,.68,54.12l3.54-3.26L681,98.07l-3.38,3.06a58,58,0,0,1-39,15.07"/><polygon id="K" class="cls-2" points="467.37 116.2 437.9 116.2 402.41 75.55 402.41 116.2 381.2 116.2 381.2 0 402.41 0 402.41 40.96 438.91 0 467.37 0 416.77 56.87 467.37 116.2"/><polygon class="cls-2" points="300.81 33.97 300.82 33.99 300.83 33.97 300.81 33.97"/><path class="cls-2" d="M357.19,116.18H334.29l-10.1-24.81H277.45l-10.1,24.81H244.45L291.7,0h18.24ZM315.47,70,300.82,34,286.17,70Z"/><path id="U" class="cls-2" d="M186.63,116.2C160.6,116.2,141,97,141,71.65V0h21.2V67.78c0,12.8,7.65,27.2,24.74,27.2s24.7-14.4,24.7-27.2V0h21.24V71.65c0,25.81-19.43,44.55-46.21,44.55"/><polygon class="cls-2" points="556.12 21.2 556.12 0 491.38 0 491.38 116.2 556.12 116.2 556.12 95 512.58 95 512.58 68.18 556.11 68.18 556.11 46.98 512.58 46.98 512.58 21.2 556.12 21.2"/><g id="CIRCLE_SPIKE_Black" data-name="CIRCLE &amp; SPIKE Black"><g id="Q_Spike" data-name="Q Spike"><path id="Q_Spike_Icon" data-name="Q Spike Icon" class="cls-2" d="M116.61,58.31a58.31,58.31,0,1,0-64.93,57.91v10l6.62,27,6.63-27v-10A58.3,58.3,0,0,0,116.61,58.31ZM49.33,70.43v3.13l2.35,2.76V94.79a37.1,37.1,0,1,1,13.25,0V76.32l2.35-2.76V70.43Z"/></g></g><path class="cls-1" d="M1294.42,116.11c-24.67,0-43.05-12.9-43.05-32.41,0-13.87,7.58-22.41,20.32-27.73-9.51-5-16.45-12.58-16.45-25.32,0-17.41,16.61-30.64,39.18-30.64s39.18,13.22,39.18,30.64c0,12.74-6.93,20.32-16.45,25.32,12.26,5.64,20.32,13.71,20.32,27.25C1337.47,103.54,1319.09,116.11,1294.42,116.11Zm0-50.5c-12.35,0-21.87,6.52-21.87,16.6,0,9.16,8.18,16.45,21.87,16.45s21.87-7.29,21.87-16.45C1316.29,72.13,1306.77,65.62,1294.42,65.62Zm0-46.58c-10.74,0-17.9,6.32-17.9,14.07,0,8.9,7.59,15.07,17.9,15.07s17.9-6.17,17.9-14.93C1312.32,25.35,1305.16,19,1294.42,19Z"/></g></g></svg>