<?xml version="1.0" encoding="utf-8"?>
<!-- Generator: Adobe Illustrator 21.1.0, SVG Export Plug-In . SVG Version: 6.00 Build 0)  -->
<svg version="1.1" id="Layer_1" xmlns="http://www.w3.org/2000/svg" xmlns:xlink="http://www.w3.org/1999/xlink" x="0px" y="0px"
	 viewBox="0 0 1337.5 153.3" style="enable-background:new 0 0 1337.5 153.3;" xml:space="preserve">
<style type="text/css">
	.st0{fill:#305364;}
	.st1{fill:#F26531;}
</style>
<title>Asset 3quakecon20quakecon-with2018-color</title>
<g id="Layer_2">
	<g id="Layer_1-2">
		<path class="st0" d="M1014.5,0c-20.8,0-31.5,9.1-42,23.9l-0.7,1l1,0.8l13.8,10.8l1,0.8l0.8-1c9.1-11.8,15.8-15,24.7-15
			c10.1,0,18.1,5.2,18.1,14.9c0,9.1-6.2,15.9-21.8,29l-38.3,32.5l-0.5,0.4v18.1h82.9V95.6h-45.9l20.1-16.7
			c21.9-17.8,24.7-33,24.7-44.2C1052.4,13.9,1037.2,0,1014.5,0L1014.5,0z"/>
		<path class="st0" d="M1121.8,116.1c-29.5,0-48.8-25.7-48.8-57.9S1092.7,0,1122.2,0s48.8,25.7,48.8,57.9S1151.3,116.1,1121.8,116.1
			z M1121.8,21.2c-16.9,0-27.5,16.1-27.5,36.7s10.9,37,27.8,37s27.5-16.3,27.5-36.7S1138.8,21.2,1121.8,21.2z"/>
		<path class="st0" d="M1230.4,0h-14.9l-32.3,10.3l6.8,20.1l19.2-6.1v91.9h21.2L1230.4,0z"/>
		<g id="Registered_Symbol">
			<path class="st1" d="M950.3,0.1c-4.5,0-8.2,3.7-8.2,8.2l0,0c0,4.5,3.7,8.2,8.2,8.2c4.5,0,8.2-3.7,8.2-8.2c0,0,0,0,0,0l0,0
				C958.5,3.8,954.8,0.1,950.3,0.1C950.3,0.1,950.3,0.1,950.3,0.1z M956.4,8.3c0,3.4-2.7,6.1-6.1,6.1c-3.4,0-6.1-2.7-6.1-6.1
				c0,0,0,0,0,0l0,0c0-3.4,2.7-6.1,6.1-6.1C953.6,2.2,956.4,4.9,956.4,8.3C956.4,8.3,956.4,8.3,956.4,8.3z"/>
			<path class="st1" d="M953.7,6.6c0-1.5-1.1-2.7-2.6-2.8c-0.1,0-0.2,0-0.3,0h-3.5v8.9h1.3V9.5h1.9l2,3.3h1.6l-2.2-3.4
				C953,9,953.8,7.9,953.7,6.6z M948.5,8.4V5.2h2.1c1.1,0,1.8,0.5,1.8,1.6c0,0.9-0.7,1.6-1.5,1.6c-0.1,0-0.2,0-0.2,0L948.5,8.4z"/>
		</g>
		<polygon id="N" class="st1" points="928.1,116.1 910,116.1 859.9,42.1 859.9,116.1 838.7,116.1 838.7,0 856.7,0 906.9,74 906.9,0 
			928.1,0 		"/>
		<path id="O" class="st1" d="M756.2,116.2c-32.1,0-58.1-26-58.1-58.1S724.1,0,756.1,0c32.1,0,58.1,26,58.1,58.1c0,0,0,0,0,0
			C814.2,90.2,788.2,116.2,756.2,116.2 M756.2,21.7c-20.1,0-36.4,16.3-36.4,36.4s16.3,36.4,36.4,36.4s36.4-16.3,36.4-36.4
			c0,0,0,0,0,0C792.5,38,776.2,21.8,756.2,21.7"/>
		<path id="C" class="st1" d="M638.6,116.2c-32.1,0-58.1-26-58.1-58.1c0-32.1,26-58.1,58.1-58.1c14.1,0,27.8,5.2,38.4,14.5l3.5,3.1
			L666,33.8l-3.5-3c-15.1-13.2-38.1-11.7-51.3,3.4s-11.7,38.1,3.4,51.3c14,12.2,34.9,12,48.6-0.6l3.5-3.3L681,98.1l-3.4,3.1
			C666.9,110.8,653,116.2,638.6,116.2"/>
		<polygon id="K" class="st1" points="467.4,116.2 437.9,116.2 402.4,75.6 402.4,116.2 381.2,116.2 381.2,0 402.4,0 402.4,41 
			438.9,0 467.4,0 416.8,56.9 		"/>
		<polygon class="st1" points="300.8,34 300.8,34 300.8,34 		"/>
		<path class="st1" d="M357.2,116.2h-22.9l-10.1-24.8h-46.7l-10.1,24.8h-22.9L291.7,0h18.2L357.2,116.2z M315.5,70l-14.6-36
			l-14.6,36H315.5z"/>
		<path id="U" class="st1" d="M186.6,116.2c-26,0-45.6-19.2-45.6-44.5V0h21.2v67.8c0,12.8,7.6,27.2,24.7,27.2s24.7-14.4,24.7-27.2V0
			h21.2v71.7C232.9,97.5,213.5,116.2,186.6,116.2"/>
		<polygon class="st1" points="556.1,21.2 556.1,0 491.4,0 491.4,116.2 556.1,116.2 556.1,95 512.6,95 512.6,68.2 556.1,68.2 
			556.1,47 512.6,47 512.6,21.2 		"/>
		<g id="CIRCLE_SPIKE_Black">
			<g id="Q_Spike">
				<path id="Q_Spike_Icon" class="st1" d="M116.6,58.3C116.6,26.1,90.5,0,58.3,0S0,26.1,0,58.3c0,29.7,22.2,54.6,51.7,58v10l6.6,27
					l6.6-27v-10C94.4,112.9,116.6,87.9,116.6,58.3z M49.3,70.4v3.1l2.3,2.8v18.5c-20.2-3.7-33.5-23-29.9-43.1s23-33.5,43.1-29.9
					s33.5,23,29.9,43.1C92,80.1,80.1,92,64.9,94.8V76.3l2.3-2.8v-3.1H49.3z"/>
			</g>
		</g>
		<path class="st0" d="M1294.4,116.1c-24.7,0-43.1-12.9-43.1-32.4c0-13.9,7.6-22.4,20.3-27.7c-9.5-5-16.4-12.6-16.4-25.3
			c0-17.4,16.6-30.6,39.2-30.6s39.2,13.2,39.2,30.6c0,12.7-6.9,20.3-16.4,25.3c12.3,5.6,20.3,13.7,20.3,27.3
			C1337.5,103.5,1319.1,116.1,1294.4,116.1z M1294.4,65.6c-12.3,0-21.9,6.5-21.9,16.6c0,9.2,8.2,16.5,21.9,16.5s21.9-7.3,21.9-16.4
			C1316.3,72.1,1306.8,65.6,1294.4,65.6L1294.4,65.6z M1294.4,19c-10.7,0-17.9,6.3-17.9,14.1c0,8.9,7.6,15.1,17.9,15.1
			s17.9-6.2,17.9-14.9C1312.3,25.4,1305.2,19,1294.4,19L1294.4,19z"/>
	</g>
</g>
</svg>
