<svg xmlns="http://www.w3.org/2000/svg" viewBox="0 0 913.11 275.85"><defs><style>.cls-1{fill:#fff;}.cls-2{fill:#f26531;}</style></defs><title>Asset 11quakecon-2Q18-withdates-white</title><g id="Layer_2" data-name="Layer 2"><g id="Layer_1-2" data-name="Layer 1"><path class="cls-1" d="M197.68,0c-37,0-56,16.25-74.71,42.46l-1.29,1.82,1.76,1.37L148,64.85l1.85,1.44,1.43-1.86c16.16-20.94,28-26.74,43.87-26.74,18,0,32.18,9.17,32.18,26.44,0,16.14-11.06,28.19-38.76,51.56l-68,57.86-.82.7v32.18H267.18V169.9H185.6l35.69-29.75c38.92-31.7,43.91-58.63,43.91-78.56C265.2,24.75,238.07,0,197.68,0Z"/><path class="cls-1" d="M607,.09H580.53L523.09,18.42l12.16,35.65,34-10.88V206.44H607Z"/><path class="cls-1" d="M716.74,206.44c-43.85,0-76.52-22.93-76.52-57.61,0-24.65,13.47-39.84,36.11-49.29-16.91-8.88-29.23-22.36-29.23-45,0-31,29.52-54.45,69.64-54.45s69.64,23.5,69.64,54.45c0,22.64-12.32,36.11-29.23,45,21.78,10,36.11,24.36,36.11,48.43C793.27,184.09,760.6,206.44,716.74,206.44Zm0-89.75c-21.95,0-38.88,11.58-38.88,29.51,0,16.27,14.55,29.23,38.88,29.23s38.88-13,38.88-29.23C755.62,128.27,738.7,116.69,716.74,116.69Zm0-82.79c-19.08,0-31.81,11.22-31.81,25,0,15.82,13.49,26.79,31.81,26.79s31.81-11,31.81-26.53C748.55,45.12,735.83,33.9,716.74,33.9Z"/><g id="Registered_Symbol" data-name="Registered Symbol"><path id="Registered_Circle" data-name="Registered Circle" class="cls-2" d="M486.4,191.06a6.82,6.82,0,0,0-6.78,6.82v0a6.78,6.78,0,1,0,13.56,0v0A6.76,6.76,0,0,0,486.4,191.06Zm5.24,6.82a5.24,5.24,0,1,1-10.49,0v0a5.24,5.24,0,1,1,10.49,0Z"/><path id="Registered_R" data-name="Registered R" class="cls-2" d="M489.35,196.36a2.23,2.23,0,0,0-2.44-2.27H484v7.35H485v-2.69h1.58l1.65,2.69h1.32l-1.84-2.86A2.21,2.21,0,0,0,489.35,196.36ZM485,197.79v-2.65h1.76c.9,0,1.47.42,1.47,1.3a1.3,1.3,0,0,1-1.47,1.35Z"/></g><g id="CIRCLE_SPIKE_Black" data-name="CIRCLE &amp; SPIKE Black"><g id="Q_Spike" data-name="Q Spike"><path id="Q_Spike_Icon" data-name="Q Spike Icon" class="cls-2" d="M504.53,103.64A103.55,103.55,0,1,0,389.21,206.48v17.84l11.76,48,11.77-48V206.48A103.53,103.53,0,0,0,504.53,103.64ZM385,125.17v5.57l4.18,4.89v32.8a65.9,65.9,0,1,1,23.53,0V135.63l4.18-4.89v-5.57Z"/></g></g><path class="cls-1" d="M460.29,275.85c-9.61,0-15.94-6.85-15.94-15.85a15.67,15.67,0,0,1,15.85-15.94A16.6,16.6,0,0,1,472,248.24l-3.42,4.08A12,12,0,0,0,460,249c-5.66,0-10,4.92-10,10.89,0,6.37,4.17,11,10.45,11a12.54,12.54,0,0,0,7.42-2.33v-5.75H460v-4.7h13.08v12.91A19.6,19.6,0,0,1,460.29,275.85Z"/><path class="cls-1" d="M516.13,275.32h-5.71l-3.12-7.42H492.77l-3.16,7.42h-5.53l13.52-30.95h5ZM500,250.83l-5.27,12.29h10.58Z"/><path class="cls-1" d="M537.64,275.32H532.2V263.21L520,244.6h6.37L535,258.2l8.69-13.61h6.19l-12.2,18.48Z"/><path class="cls-1" d="M561.17,244.6h5.4v25.81h16.16v4.92H561.17Z"/><path class="cls-1" d="M607.83,275.85a15.89,15.89,0,1,1,16.11-15.94A15.61,15.61,0,0,1,607.83,275.85Zm0-26.82c-6.1,0-10.36,4.87-10.36,10.89s4.35,11,10.45,11S618.28,266,618.28,260,613.94,249,607.83,249Z"/><path class="cls-1" d="M656.78,275.32l-7.55-10.71h-6.76v10.71h-5.4V244.6h13.7c7.07,0,11.41,3.73,11.41,9.75,0,5.09-3,8.17-7.33,9.35l8.3,11.63Zm-6.45-25.81h-7.86v10.32h7.9c3.86,0,6.32-2,6.32-5.18C656.69,251.27,654.32,249.51,650.33,249.51Z"/><path class="cls-1" d="M686.85,275.32H675.4V244.6h11.46c9.66,0,16.33,6.63,16.33,15.32S696.51,275.32,686.85,275.32Zm0-25.81h-6.06v20.9h6.06c6.45,0,10.67-4.35,10.67-10.4S693.31,249.51,686.85,249.51Z"/><path class="cls-1" d="M749.06,275.32h-5.44V249.6h-9.75v-5H758.8v5h-9.75Z"/><path class="cls-1" d="M793.88,249.42H776.49v8H791.9v4.83H776.49v8.25h17.6v4.83h-23V244.6h22.78Z"/><path class="cls-1" d="M827.15,275.32l-8.08-11.63L811,275.32h-6.19L816,259.7,805.2,244.6h6.37l7.64,11,7.68-11h6.19l-10.71,15,11.15,15.72Z"/><path class="cls-1" d="M874.48,275.32h-5.71l-3.12-7.42H851.12L848,275.32h-5.53L856,244.38h5Zm-16.11-24.5-5.27,12.29h10.58Z"/><path class="cls-1" d="M907.8,244.6h5.31v30.73h-4.52l-16.95-21.86v21.86h-5.31V244.6h5l16.46,21.25Z"/><path class="cls-1" d="M32,275.32H26.34l-3.12-7.42H8.69l-3.16,7.42H0l13.52-30.95h5Zm-16.11-24.5-5.27,12.29H21.25Z"/><path class="cls-1" d="M68.79,262c0,9.17-5.18,13.78-13.21,13.78s-13.08-4.61-13.08-13.52V244.6h5.4v17.47c0,5.71,2.94,8.78,7.77,8.78s7.73-2.9,7.73-8.56V244.6h5.4Z"/><path class="cls-1" d="M97.54,275.85c-9.61,0-15.94-6.85-15.94-15.85a15.67,15.67,0,0,1,15.85-15.94,16.6,16.6,0,0,1,11.81,4.17l-3.42,4.08a12,12,0,0,0-8.6-3.29c-5.66,0-10,4.92-10,10.89,0,6.37,4.17,11,10.45,11a12.54,12.54,0,0,0,7.42-2.33v-5.75H97.28v-4.7h13.08v12.91A19.6,19.6,0,0,1,97.54,275.85Z"/><path class="cls-1" d="M150,262c0,9.17-5.18,13.78-13.21,13.78s-13.08-4.61-13.08-13.52V244.6h5.4v17.47c0,5.71,2.94,8.78,7.77,8.78s7.73-2.9,7.73-8.56V244.6H150Z"/><path class="cls-1" d="M176,257.5c6.5,1.58,9.88,3.91,9.88,9,0,5.79-4.52,9.22-11,9.22a18.93,18.93,0,0,1-12.82-4.92l3.25-3.86c2.94,2.55,5.88,4,9.7,4,3.34,0,5.44-1.54,5.44-3.91s-1.23-3.42-6.94-4.74c-6.54-1.58-10.23-3.51-10.23-9.22,0-5.36,4.39-9,10.49-9A17,17,0,0,1,184.95,248L182,252.1a14,14,0,0,0-8.34-3.16c-3.16,0-5,1.62-5,3.69C168.7,255,170.11,256.1,176,257.5Z"/><path class="cls-1" d="M211.33,275.32h-5.44V249.6h-9.75v-5h24.93v5h-9.75Z"/><path class="cls-1" d="M262.65,275.85a14.59,14.59,0,0,1-9.83-3.69l2.94-4.13a10.25,10.25,0,0,0,7,2.9c4.52,0,7.24-4,7.42-9.66a9.06,9.06,0,0,1-7.2,3.25c-6.54,0-10.89-3.82-10.89-9.79s4.65-10.67,11.46-10.67c3.86,0,6.37,1.1,8.52,3.25s3.73,5.66,3.73,11.76C275.82,269,270.9,275.85,262.65,275.85Zm1-27.13c-3.82,0-6.1,2.55-6.1,5.75S260,260,263.79,260s6.23-2.55,6.23-5.58C270,251.18,267.52,248.72,263.61,248.72Z"/><path class="cls-1" d="M287.54,264.48v-5.22h13v5.22Z"/><path class="cls-1" d="M317.83,244.38h3.78v30.95h-5.36V249.86l-5.53,1.54L309.57,247Z"/><path class="cls-1" d="M339,253.59l-3.82-3c2.94-4.13,5.84-6.45,11.33-6.45,6.15,0,10.14,3.73,10.14,9.22,0,4.87-2.55,7.51-8,11.94l-6.32,5.27h14.62v4.74H334.73v-4.26l10.58-9c4.21-3.56,5.75-5.53,5.75-8.3a4.61,4.61,0,0,0-5-4.79C343.29,249,341.36,250.52,339,253.59Z"/></g></g></svg>