<?xml version="1.0" encoding="utf-8"?>
<!-- Generator: Adobe Illustrator 21.1.0, SVG Export Plug-In . SVG Version: 6.00 Build 0)  -->
<svg version="1.1" id="Layer_1" xmlns="http://www.w3.org/2000/svg" xmlns:xlink="http://www.w3.org/1999/xlink" x="0px" y="0px"
	 viewBox="0 0 673.6 272.4" style="enable-background:new 0 0 673.6 272.4;" xml:space="preserve">
<style type="text/css">
	.st0{fill:#305364;}
	.st1{fill:#F26531;}
</style>
<title>Asset 7quakecon-2Q18-color</title>
<g id="Layer_2">
	<g id="Layer_1-2">
		<path class="st0" d="M78,0C41,0,22,16.3,3.3,42.5L2,44.3l1.8,1.4l24.5,19.2l1.9,1.4l1.4-1.9c16.2-20.9,28-26.7,43.9-26.7
			c18,0,32.2,9.2,32.2,26.4c0,16.1-11.1,28.2-38.8,51.6l-68,57.9L0,174.3v32.2h147.4v-36.5H65.9l35.7-29.8
			c38.9-31.7,43.9-58.6,43.9-78.6C145.5,24.8,118.4,0,78,0z"/>
		<path class="st0" d="M487.3,0.1h-26.4l-57.4,18.3l12.2,35.7l34-10.9v163.3h37.7L487.3,0.1z"/>
		<path class="st0" d="M597,206.4c-43.8,0-76.5-22.9-76.5-57.6c0-24.7,13.5-39.8,36.1-49.3c-16.9-8.9-29.2-22.4-29.2-45
			c0-31,29.5-54.5,69.6-54.5s69.6,23.5,69.6,54.5c0,22.6-12.3,36.1-29.2,45c21.8,10,36.1,24.4,36.1,48.4
			C673.6,184.1,640.9,206.4,597,206.4z M597,116.7c-22,0-38.9,11.6-38.9,29.5c0,16.3,14.5,29.2,38.9,29.2s38.9-13,38.9-29.2
			C635.9,128.3,619,116.7,597,116.7z M597,33.9c-19.1,0-31.8,11.2-31.8,25c0,15.8,13.5,26.8,31.8,26.8s31.8-11,31.8-26.5
			C628.8,45.1,616.1,33.9,597,33.9z"/>
		<g id="Registered_Symbol">
			<path id="Registered_Circle" class="st1" d="M366.7,191.1c-3.8,0-6.8,3.1-6.8,6.8l0,0c0,3.7,3,6.8,6.8,6.8c3.7,0,6.8-3,6.8-6.8
				c0,0,0,0,0,0l0,0C373.5,194.1,370.5,191.1,366.7,191.1C366.7,191.1,366.7,191.1,366.7,191.1z M371.9,197.9c0,2.9-2.3,5.2-5.2,5.2
				s-5.2-2.3-5.2-5.2l0,0l0,0c0-2.9,2.3-5.2,5.2-5.2S371.9,195,371.9,197.9z"/>
			<path id="Registered_R" class="st1" d="M369.6,196.4c0-1.2-0.9-2.3-2.2-2.3c-0.1,0-0.2,0-0.3,0h-2.9v7.4h1v-2.7h1.6l1.6,2.7h1.3
				l-1.9-2.9C369,198.3,369.7,197.4,369.6,196.4z M365.3,197.8v-2.6h1.8c0.9,0,1.5,0.4,1.5,1.3c0,0.7-0.5,1.3-1.2,1.4
				c-0.1,0-0.2,0-0.2,0L365.3,197.8z"/>
		</g>
		<g id="CIRCLE_SPIKE_Black">
			<g id="Q_Spike">
				<path id="Q_Spike_Icon" class="st1" d="M384.8,103.6c0-57.2-46.3-103.6-103.5-103.6S177.7,46.4,177.7,103.6
					c0,52.7,39.5,96.9,91.8,102.9v17.8l11.8,48l11.8-48v-17.8C345.3,200.5,384.8,156.3,384.8,103.6z M265.3,125.2v5.6l4.2,4.9v32.8
					c-35.8-6.5-59.6-40.8-53.1-76.6s40.8-59.6,76.6-53.1s59.6,40.8,53.1,76.6c-4.9,27-26.1,48.2-53.1,53.1v-32.8l4.2-4.9v-5.6
					L265.3,125.2z"/>
			</g>
		</g>
	</g>
</g>
</svg>
