<svg xmlns="http://www.w3.org/2000/svg" viewBox="0 0 673.56 272.35"><defs><style>.cls-1{fill:#939598;}</style></defs><title>Asset 9quakecon-2Q18-grayscale</title><g id="Layer_2" data-name="Layer 2"><g id="Layer_1-2" data-name="Layer 1"><path d="M78,0c-37,0-56,16.25-74.71,42.46L2,44.28l1.76,1.37L28.27,64.85l1.85,1.44,1.43-1.86C47.71,43.49,59.6,37.7,75.43,37.7c18,0,32.18,9.17,32.18,26.44,0,16.14-11.06,28.19-38.76,51.56l-68,57.86-.82.7v32.18H147.47V169.9H65.89l35.69-29.75c38.92-31.7,43.91-58.63,43.91-78.56C145.49,24.75,118.36,0,78,0Z"/><path d="M487.27.09H460.82L403.38,18.42l12.16,35.65,34-10.88V206.44h37.68Z"/><path d="M597,206.44c-43.85,0-76.52-22.93-76.52-57.61,0-24.65,13.47-39.84,36.11-49.29-16.91-8.88-29.23-22.36-29.23-45,0-31,29.52-54.45,69.64-54.45s69.64,23.5,69.64,54.45c0,22.64-12.32,36.11-29.23,45,21.78,10,36.11,24.36,36.11,48.43C673.56,184.09,640.89,206.44,597,206.44Zm0-89.75c-21.95,0-38.88,11.58-38.88,29.51,0,16.27,14.55,29.23,38.88,29.23s38.88-13,38.88-29.23C635.91,128.27,619,116.69,597,116.69Zm0-82.79c-19.08,0-31.81,11.22-31.81,25,0,15.82,13.49,26.79,31.81,26.79s31.81-11,31.81-26.53C628.84,45.12,616.12,33.9,597,33.9Z"/><g id="Registered_Symbol" data-name="Registered Symbol"><path id="Registered_Circle" data-name="Registered Circle" class="cls-1" d="M366.69,191.06a6.82,6.82,0,0,0-6.78,6.82v0a6.78,6.78,0,1,0,13.56,0v0A6.76,6.76,0,0,0,366.69,191.06Zm5.24,6.82a5.24,5.24,0,1,1-10.49,0v0a5.24,5.24,0,1,1,10.49,0Z"/><path id="Registered_R" data-name="Registered R" class="cls-1" d="M369.64,196.36a2.23,2.23,0,0,0-2.44-2.27h-2.93v7.35h1.05v-2.69h1.58l1.65,2.69h1.32L368,198.59A2.21,2.21,0,0,0,369.64,196.36Zm-4.32,1.43v-2.65h1.76c.9,0,1.47.42,1.47,1.3a1.3,1.3,0,0,1-1.47,1.35Z"/></g><g id="CIRCLE_SPIKE_Black" data-name="CIRCLE &amp; SPIKE Black"><g id="Q_Spike" data-name="Q Spike"><path id="Q_Spike_Icon" data-name="Q Spike Icon" class="cls-1" d="M384.82,103.64A103.55,103.55,0,1,0,269.5,206.48v17.84l11.76,48,11.77-48V206.48A103.53,103.53,0,0,0,384.82,103.64Zm-119.5,21.53v5.57l4.18,4.89v32.8a65.9,65.9,0,1,1,23.53,0V135.63l4.18-4.89v-5.57Z"/></g></g></g></g></svg>