<svg id="PRIMARY_LOGOS" data-name="PRIMARY LOGOS" xmlns="http://www.w3.org/2000/svg" viewBox="0 0 1521.38 2000.06"><defs><style>.cls-1{fill:#231f20;}</style></defs><title>QuakeCon-Circle&amp;amp;Spike-Black</title><g id="CIRCLE_SPIKE_Black" data-name="CIRCLE &amp; SPIKE Black"><g id="Q_Spike" data-name="Q Spike"><g id="Registered_Symbol" data-name="Registered Symbol"><path id="Registered_Circle" data-name="Registered Circle" class="cls-1" d="M-825.32-4995.12a35.28,35.28,0,0,0-35.08,35.29v0.21a35,35,0,0,0,35.08,35.1,35.29,35.29,0,0,0,35.1-35.3v-0.2A35,35,0,0,0-825.32-4995.12Zm27.15,35.29a27.23,27.23,0,0,1-27.15,27.49,27,27,0,0,1-27.13-27.31v-0.18a27.23,27.23,0,0,1,27.13-27.49A27,27,0,0,1-798.17-4960v0.18Z" transform="translate(2213.12 6413)"/><path id="Registered_R" data-name="Registered R" class="cls-1" d="M-810-4967.71c0-7.61-5.64-11.74-12.63-11.74h-15.17v38.06h5.45v-13.92h8.17l8.55,13.92h6.81l-9.53-14.79A11.46,11.46,0,0,0-810-4967.71Zm-22.35,7.4V-4974h9.13c4.67,0,7.59,2.18,7.59,6.74,0,4.14-2.72,7-7.59,7h-9.13Z" transform="translate(2213.12 6413)"/></g><path id="Q_Spike_Icon" data-name="Q Spike Icon" class="cls-1" d="M-691.73-5652.31c0-420.12-340.57-760.69-760.69-760.69s-760.69,340.57-760.69,760.69c0,390.86,294.91,712.49,674.27,755.45v131.06l86.41,352.86L-1366-4765.8v-131.06C-986.64-4939.83-691.73-5261.45-691.73-5652.31Zm-877.82,158.18v40.9l30.71,35.94v240.92c-226-40.81-397.66-238.14-397.66-475.94,0-267.35,216.73-484.08,484.08-484.08s484.08,216.73,484.08,484.08c0,237.8-171.61,435.14-397.65,475.94v-240.91l30.7-36v-40.9h-234.26Z" transform="translate(2213.12 6413)"/></g></g></svg>