<svg id="PRIMARY_LOGOS" data-name="PRIMARY LOGOS" xmlns="http://www.w3.org/2000/svg" viewBox="0 0 307.83 48.15"><defs><style>.cls-1{fill:#231f20;}</style></defs><title>QuakeCon-Primary-Black</title><g id="QUAKECON_Black" data-name="QUAKECON Black"><g id="Long_Form" data-name="Long Form"><g id="Registered_Symbol" data-name="Registered Symbol"><path class="cls-1" d="M328.46,23.35a2.58,2.58,0,0,0-2.57,2.58v0a2.57,2.57,0,1,0,5.14,0v0A2.56,2.56,0,0,0,328.46,23.35Zm1.92,2.58a1.92,1.92,0,1,1-3.84,0h0a1.92,1.92,0,1,1,3.84,0h0Z" transform="translate(-23.19 -23.31)"/><path class="cls-1" d="M329.54,25.4a0.85,0.85,0,0,0-.93-0.86H327.5v2.79h0.4v-1h0.6l0.63,1h0.5l-0.7-1.08A0.84,0.84,0,0,0,329.54,25.4Zm-1.64.54v-1h0.67a0.48,0.48,0,0,1,.56.49,0.49,0.49,0,0,1-.56.51H327.9Z" transform="translate(-23.19 -23.31)"/></g><polygon id="N" class="cls-1" points="298.89 36.47 292.62 36.47 276.88 13.78 276.88 36.47 269.63 36.47 269.63 0 275.9 0 291.64 22.69 291.64 0 298.89 0 298.89 36.47"/><path id="O" class="cls-1" d="M266.36,59.81a18.25,18.25,0,1,1,18.25-18.25,18.27,18.27,0,0,1-18.25,18.25m0-29.67a11.42,11.42,0,1,0,11.42,11.42,11.44,11.44,0,0,0-11.42-11.42" transform="translate(-23.19 -23.31)"/><path id="C" class="cls-1" d="M228.87,59.81a18.25,18.25,0,1,1,12-31.94l1.11,1-4.55,5.08-1.09-1a11.42,11.42,0,1,0,.21,17l1.11-1,4.47,5.17-1.06,1a18.2,18.2,0,0,1-12.26,4.73" transform="translate(-23.19 -23.31)"/><polygon id="E" class="cls-1" points="179.22 36.49 158.88 36.49 158.88 0 179.22 0 179.22 6.98 166.13 6.98 166.13 14.58 179.22 14.58 179.22 21.56 166.13 21.56 166.13 29.51 179.22 29.51 179.22 36.49"/><polygon id="K" class="cls-1" points="150.66 36.49 140.5 36.49 129.36 23.73 129.36 36.49 122.11 36.49 122.11 0 129.36 0 129.36 12.87 140.82 0 150.36 0 133.94 17.86 150.66 36.49"/><path id="A" class="cls-1" d="M137.07,59.8h-7.9l-3-7.79H112.61l-3,7.79h-7.91l14.84-36.49h5.73ZM115.23,45.29h8.27l-4.14-10.72Z" transform="translate(-23.19 -23.31)"/><path id="U" class="cls-1" d="M82.37,59.81c-8.18,0-14.34-6-14.34-14V23.31h7.15V44.6c0,4,1.91,8.32,7.28,8.32s7.28-4.3,7.28-8.32V23.31h7.15v22.5c0,8.11-6.1,14-14.51,14" transform="translate(-23.19 -23.31)"/><path id="Q" class="cls-1" d="M59.82,41.63A18.31,18.31,0,1,0,39.42,59.81V63l2.08,8.49L43.59,63V59.81A18.31,18.31,0,0,0,59.82,41.63ZM38.69,45.43v1l0.74,0.87v5.8a11.65,11.65,0,1,1,4.16,0v-5.8l0.74-.87v-1H38.69Z" transform="translate(-23.19 -23.31)"/></g></g></svg>